<svg xmlns="http://www.w3.org/2000/svg" style="display:none">
  <symbol id="logo" viewBox="0 0 24 24" fill="none" stroke="currentColor" stroke-width="1.6" stroke-linecap="round" stroke-linejoin="round">
    <path d="M4 6h8l4 4v8H4z" />
    <path d="M12 6v4h4" />
  </symbol>
  <symbol id="upload" viewBox="0 0 24 24" fill="none" stroke="currentColor" stroke-width="1.6" stroke-linecap="round" stroke-linejoin="round">
    <path d="M12 16V4" />
    <path d="M7 9l5-5 5 5" />
    <rect x="4" y="16" width="16" height="4" rx="2" />
  </symbol>
  <symbol id="shield" viewBox="0 0 24 24" fill="none" stroke="currentColor" stroke-width="1.6" stroke-linecap="round" stroke-linejoin="round">
    <path d="M12 3l7 3v6c0 5-3.5 8-7 9-3.5-1-7-4-7-9V6l7-3z" />
    <path d="M9 12l2 2 4-4" />
  </symbol>
  <symbol id="scale" viewBox="0 0 24 24" fill="none" stroke="currentColor" stroke-width="1.6" stroke-linecap="round" stroke-linejoin="round">
    <path d="M12 3v4" />
    <path d="M5 7h14" />
    <path d="M7 7l-3 6h6l-3-6z" />
    <path d="M17 7l-3 6h6l-3-6z" />
    <path d="M12 7v14" />
  </symbol>
  <symbol id="lock" viewBox="0 0 24 24" fill="none" stroke="currentColor" stroke-width="1.6" stroke-linecap="round" stroke-linejoin="round">
    <rect x="5" y="11" width="14" height="9" rx="2" />
    <path d="M8 11V8a4 4 0 0 1 8 0v3" />
  </symbol>
  <symbol id="arrow" viewBox="0 0 24 24" fill="none" stroke="currentColor" stroke-width="1.6" stroke-linecap="round" stroke-linejoin="round">
    <path d="M5 12h14" />
    <path d="M13 6l6 6-6 6" />
  </symbol>
</svg>
